<svg 
 xmlns="http://www.w3.org/2000/svg"
 xmlns:xlink="http://www.w3.org/1999/xlink"
 width="36px" height="35px">
<path fill-rule="evenodd"  fill="rgb(255, 255, 255)"
 d="M31.321,-0.000 L4.679,-0.000 C2.237,-0.000 0.239,1.969 0.239,4.375 L0.239,30.625 C0.239,33.031 2.237,35.000 4.679,35.000 L18.153,35.000 L18.153,22.450 L13.900,22.450 L13.900,16.983 L18.153,16.983 L18.153,14.244 C18.153,10.022 21.317,6.715 25.357,6.715 L29.277,6.715 L29.277,12.889 L25.770,12.889 C24.852,12.889 24.582,13.408 24.582,14.126 L24.582,16.983 L29.277,16.983 L29.277,22.450 L24.582,22.450 L24.582,35.000 L31.321,35.000 C33.763,35.000 35.761,33.031 35.761,30.625 L35.761,4.375 C35.761,1.969 33.763,-0.000 31.321,-0.000 Z"/>
</svg>