<svg 
 xmlns="http://www.w3.org/2000/svg"
 xmlns:xlink="http://www.w3.org/1999/xlink"
 width="38px" height="31px">
<path fill-rule="evenodd"  fill="rgb(255, 255, 255)"
 d="M38.000,4.045 C36.601,4.658 35.099,5.071 33.522,5.258 C35.132,4.305 36.368,2.795 36.950,0.995 C35.443,1.878 33.775,2.519 32.000,2.865 C30.577,1.367 28.551,0.432 26.309,0.432 C22.003,0.432 18.513,3.882 18.513,8.137 C18.513,8.741 18.581,9.329 18.714,9.892 C12.236,9.571 6.489,6.504 2.645,1.842 C1.974,2.980 1.589,4.304 1.589,5.716 C1.589,8.389 2.966,10.747 5.057,12.129 C3.780,12.089 2.577,11.743 1.526,11.166 C1.526,11.197 1.526,11.229 1.526,11.262 C1.526,14.995 4.214,18.110 7.779,18.817 C7.126,18.993 6.437,19.088 5.725,19.088 C5.224,19.088 4.735,19.039 4.259,18.949 C5.251,22.010 8.131,24.238 11.542,24.300 C8.873,26.367 5.512,27.599 1.860,27.599 C1.230,27.599 0.610,27.562 0.000,27.490 C3.450,29.677 7.547,30.953 11.951,30.953 C26.290,30.953 34.133,19.212 34.133,9.030 C34.133,8.696 34.125,8.364 34.110,8.033 C35.633,6.947 36.954,5.590 38.000,4.045 Z"/>
</svg>